<?xml version="1.0" encoding="utf-8"?>
<!-- Generator: Adobe Illustrator 22.1.0, SVG Export Plug-In . SVG Version: 6.00 Build 0)  -->
<svg version="1.1" id="Layer_1" xmlns="http://www.w3.org/2000/svg" xmlns:xlink="http://www.w3.org/1999/xlink" x="0px" y="0px"
	 viewBox="0 0 159 37" style="enable-background:new 0 0 159 37;" xml:space="preserve">
<path d="M53.3,18.5c0,12-8.4,17.5-26.3,17.5C9.1,36,0.7,30.5,0.7,18.5C0.7,6.4,9.1,1,27,1C44.9,1,53.3,6.4,53.3,18.5z M1.2,18.5
	c0,11.7,8.1,17.1,25.8,17.1c17.8,0,25.8-5.4,25.8-17.1C52.8,6.8,44.7,1.4,27,1.4C9.3,1.4,1.2,6.8,1.2,18.5z M17.4,18.5
	c0-5,3.5-7.7,9.6-7.7c6.2,0,9.6,2.7,9.6,7.7c0,5-3.5,7.7-9.6,7.7C20.9,26.2,17.4,23.5,17.4,18.5z M36.1,18.5c0-4.6-3.2-7.2-9.1-7.2
	c-5.9,0-9.1,2.6-9.1,7.2c0,4.6,3.2,7.2,9.1,7.2C32.9,25.7,36.1,23.1,36.1,18.5z"/>
<path d="M56.2,31.1v-11L78.3,1H100v21h6.1v9.1H100v5H83.8v-5H56.2z M84.3,35.6h15.2v-5h6.1v-8.1h-6.1v-21h-21L56.7,20.4v10.2h27.6
	V35.6z M71.3,22.5v-1.1l12.1-10.5h1v11.6H71.3z M83.8,11.4h-0.3L71.8,21.6V22h12.1V11.4z"/>
<path d="M108.7,31.1v-11L130.8,1h21.7v21h6.1v9.1h-6.1v5h-16.2v-5H108.7z M136.8,35.6H152v-5h6.1v-8.1H152v-21h-21l-21.8,18.9v10.2
	h27.6V35.6z M123.8,22.5v-1.1l12.1-10.5h1v11.6H123.8z M136.3,11.4H136l-11.8,10.2V22h12.1V11.4z"/>
</svg>
