<?xml version="1.0" encoding="utf-8"?>
<!-- Generator: Adobe Illustrator 22.1.0, SVG Export Plug-In . SVG Version: 6.00 Build 0)  -->
<svg version="1.1" id="Layer_1" xmlns="http://www.w3.org/2000/svg" xmlns:xlink="http://www.w3.org/1999/xlink" x="0px" y="0px"
	 viewBox="0 0 164 28" style="enable-background:new 0 0 164 28;" xml:space="preserve">
<style type="text/css">
	.st0{fill:#46C016;}
</style>
<path class="st0" d="M13.4,20.7h24.7v6.9H0v-1c0-9.3,6.8-11.7,15.1-13.7l5.7-1.4c3.1-0.7,4-1.4,4-2.6c0-1.4-1.7-2-4.5-2
	c-3.2,0-5.3,1-5.8,3.1H0.6c0.6-6.8,5.7-10,19.1-10c12.7,0,18.7,1.9,18.7,8.2c0,6-4.1,7.8-11.6,9.1l-9.9,1.7
	C14.8,19.5,13.7,20.2,13.4,20.7z M26.6,17.1c7.4-1.3,11.3-3,11.3-8.8c0-5.7-5-7.8-18.3-7.8C7.3,0.5,1.8,3.2,1,9.7h13.2
	c0.7-2.1,2.7-3.1,6.1-3.1c3.1,0,4.8,0.8,4.8,2.3c0,1.4-1,2.2-4.3,3l-5.7,1.4c-8.2,2-14.8,4.4-14.8,13.4v0.7h37.4v-6.1h-25
	c0.1-1,1.8-1.9,4-2.3L26.6,17.1z"/>
<path class="st0" d="M80.4,13.9c0,9.4-6.1,13.8-19.2,13.8C48.1,27.7,42,23.3,42,13.9S48,0.1,61.2,0.1C74.3,0.1,80.4,4.4,80.4,13.9z
	 M42.3,13.9c0,9.1,5.9,13.4,18.8,13.4c13,0,18.9-4.2,18.9-13.4S74.1,0.5,61.1,0.5C48.2,0.5,42.3,4.7,42.3,13.9z M54.1,13.9
	c0-3.9,2.5-6,7-6c4.5,0,7,2.2,7,6c0,3.9-2.5,6-7,6S54.1,17.7,54.1,13.9z M67.8,13.9c0-3.6-2.3-5.7-6.7-5.7c-4.3,0-6.6,2-6.6,5.7
	c0,3.6,2.3,5.7,6.6,5.7C65.5,19.6,67.8,17.5,67.8,13.9z"/>
<path class="st0" d="M97,20.7h24.7v6.9H83.6v-1c0-9.3,6.8-11.7,15.1-13.7l5.7-1.4c3.1-0.7,4-1.4,4-2.6c0-1.4-1.7-2-4.5-2
	c-3.2,0-5.3,1-5.8,3.1H84.2c0.6-6.8,5.7-10,19.1-10c12.7,0,18.7,1.9,18.7,8.2c0,6-4.1,7.8-11.6,9.1l-9.9,1.7
	C98.4,19.5,97.4,20.2,97,20.7z M110.3,17.1c7.4-1.3,11.3-3,11.3-8.8c0-5.7-5-7.8-18.3-7.8c-12.5,0-17.9,2.7-18.7,9.2h13.2
	c0.7-2.1,2.7-3.1,6.1-3.1c3.1,0,4.8,0.8,4.8,2.3c0,1.4-1,2.2-4.3,3l-5.7,1.4c-8.3,2-14.8,4.4-14.8,13.3v0.7h37.4v-6.1h-25
	c0.1-1,1.8-1.9,4-2.3L110.3,17.1z"/>
<path class="st0" d="M164,13.9c0,9.4-6.1,13.8-19.2,13.8c-13.1,0-19.2-4.3-19.2-13.8s6.1-13.8,19.2-13.8C157.9,0.1,164,4.4,164,13.9
	z M125.9,13.9c0,9.1,5.9,13.4,18.8,13.4c13,0,18.9-4.2,18.9-13.4s-5.9-13.4-18.9-13.4C131.9,0.5,125.9,4.7,125.9,13.9z M137.8,13.9
	c0-3.9,2.5-6,7-6c4.5,0,7,2.2,7,6c0,3.9-2.5,6-7,6C140.3,19.9,137.8,17.7,137.8,13.9z M151.5,13.9c0-3.6-2.3-5.7-6.7-5.7
	c-4.3,0-6.6,2-6.6,5.7c0,3.6,2.3,5.7,6.6,5.7C149.2,19.6,151.5,17.5,151.5,13.9z"/>
</svg>
