<?xml version="1.0" encoding="utf-8"?>
<!-- Generator: Adobe Illustrator 22.1.0, SVG Export Plug-In . SVG Version: 6.00 Build 0)  -->
<svg version="1.1" id="Layer_1" xmlns="http://www.w3.org/2000/svg" xmlns:xlink="http://www.w3.org/1999/xlink" x="0px" y="0px"
	 viewBox="0 0 223 37" style="enable-background:new 0 0 223 37;" xml:space="preserve">
<path d="M52.7,18.6c0,13-6.8,17.9-20.4,17.9H0.7V0.7h31.7C45.9,0.7,52.7,5.6,52.7,18.6z M1.2,1.2v34.7h31.2c14,0,19.9-5.2,19.9-17.4
	s-6-17.4-19.9-17.4H1.2z M35.3,18.6c0,4.8-2.9,7.3-8.2,7.3H16.6V11.3h10.6C32.4,11.3,35.3,13.8,35.3,18.6z M17.1,11.8v13.5h10.1
	c4.7,0,7.7-2,7.7-6.8s-3-6.8-7.7-6.8H17.1z" fill="#46c016"/>
<path d="M90.3,36.4l-5.8-9.1H73v9.1H56.6V0.7h36.5c11.3,0,15.3,4.4,15.3,12.5c0,6.5-3.1,9.2-7.7,10.3V24l8.6,12.5H90.3z M108.3,35.9
	l-8.1-11.8v-1c5.3-1.2,7.7-4.3,7.7-9.9c0-8.4-4.5-12-14.8-12h-36v34.7h15.4v-9.1h12.3l5.8,9.1H108.3z M90.6,14.9
	c0,2.3-1.4,3.5-4,3.5H72.5v-6.9h14.1C89.2,11.5,90.6,12.7,90.6,14.9z M90.1,14.9c0-2-1.2-3-3.5-3H73v5.9h13.6
	C88.8,17.9,90.1,16.9,90.1,14.9z" fill="#46c016"/>
<path d="M168,18.6c0,12.2-9.1,17.9-28.5,17.9c-19.4,0-28.5-5.6-28.5-17.9s9.1-17.9,28.5-17.9C158.9,0.7,168,6.4,168,18.6z
	 M111.6,18.6c0,11.9,8.8,17.4,28,17.4s28-5.5,28-17.4s-8.8-17.4-28-17.4S111.6,6.7,111.6,18.6z M128.5,18.6c0-5,3.9-7.7,11-7.7
	s11,2.7,11,7.7s-3.9,7.7-11,7.7S128.5,23.6,128.5,18.6z M150,18.6c0-4.7-3.6-7.3-10.5-7.3S129,13.9,129,18.6s3.6,7.3,10.5,7.3
	S150,23.3,150,18.6z" fill="#46c016"/>
<path d="M222.5,14c0,8.8-4.1,13.1-15.9,13.1h-18.4v9.3h-16.4V0.7h34.8C218.4,0.7,222.5,5.1,222.5,14z M172.3,1.2v34.7h15.4v-9.3
	h18.9c11,0,15.4-3.6,15.4-12.6c0-9.1-4.4-12.8-15.4-12.8H172.3z M187.7,18v-7.6h12.9c2.9,0,4.5,1.3,4.5,3.8c0,2.5-1.6,3.8-4.5,3.8
	H187.7z M204.6,14.2c0-2.3-1.4-3.3-4-3.3h-12.4v6.6h12.4C203.2,17.5,204.6,16.4,204.6,14.2z" fill="#46c016"/>
</svg>
