<?xml version="1.0" encoding="utf-8"?>
<!-- Generator: Adobe Illustrator 22.1.0, SVG Export Plug-In . SVG Version: 6.00 Build 0)  -->
<svg version="1.1" id="Layer_1" xmlns="http://www.w3.org/2000/svg" xmlns:xlink="http://www.w3.org/1999/xlink" x="0px" y="0px"
	 viewBox="0 0 339 37" style="enable-background:new 0 0 339 37;" xml:space="preserve">
<g>
	<path d="M34.5,36.4L23.7,23.2l-6.3,4.9v8.3H1V0.7h16.4v12.4L32.7,0.7h20.7L36.1,13.8l19.3,22.6H34.5z M54.3,35.9L35.4,13.7
		L51.9,1.2h-19l-16.1,13v-13H1.5v34.7h15.4v-8.1l6.9-5.3l11,13.4H54.3z" fill="#46c016"/>
	<path d="M96.6,36.4l-2.1-4.2H75.3l-2.1,4.2h-18L74.4,0.7h21.1l19.1,35.7H96.6z M113.7,35.9L95.2,1.2H74.7L56.1,35.9h16.9l2.1-4.2
		h19.8l2.1,4.2H113.7z M85.4,12.6c0,0,2.2,4.7,5.2,10.8H79.2c3-6,5.2-10.8,5.2-10.8H85.4z M89.8,22.9c-2.7-5.4-4.7-9.8-4.7-9.8h-0.4
		c0,0-2,4.4-4.7,9.8H89.8z" fill="#46c016"/>
	<path d="M167.5,14c0,8.8-4.1,13.1-15.9,13.1h-18.4v9.3h-16.4V0.7h34.8C163.4,0.7,167.5,5,167.5,14z M117.3,1.2v34.7h15.4v-9.3h18.9
		c11,0,15.4-3.7,15.4-12.6c0-9.1-4.4-12.8-15.4-12.8H117.3z M132.7,18v-7.6h12.9c2.9,0,4.5,1.3,4.5,3.8c0,2.5-1.6,3.8-4.5,3.8H132.7
		z M149.5,14.2c0-2.2-1.4-3.3-4-3.3h-12.4v6.6h12.4C148.1,17.5,149.5,16.4,149.5,14.2z" fill="#46c016"/>
	<path d="M204.5,36.4l-10.9-13.2l-6.3,4.9v8.3H171V0.7h16.4v12.4l15.4-12.4h20.7l-17.3,13.2l19.3,22.6H204.5z M224.3,35.9
		l-18.9-22.2l16.5-12.6h-19l-16.1,13v-13h-15.4v34.7h15.4v-8.1l6.9-5.3l11,13.4H224.3z" fill="#46c016"/>
	<path d="M266.6,36.4l-2.1-4.2h-19.2l-2.1,4.2h-18l19.2-35.7h21.1l19.1,35.7H266.6z M283.7,35.9L265.2,1.2h-20.5l-18.7,34.7h16.9
		l2.1-4.2h19.8l2.1,4.2H283.7z M255.4,12.6c0,0,2.2,4.7,5.2,10.8h-11.4c3-6,5.2-10.8,5.2-10.8H255.4z M259.8,22.9
		c-2.7-5.4-4.7-9.8-4.7-9.8h-0.4c0,0-2,4.4-4.7,9.8H259.8z" fill="#46c016"/>
	<path d="M338.3,0.7v35.7h-18.7l-17.1-18.2h-0.4v18.2h-15.5V0.7h18.9l16.9,17.9h0.4V0.7H338.3z M323.4,19.1h-1.1L305.4,1.2h-18.2
		v34.7h14.5V17.7h1.1l17.1,18.2h18V1.2h-14.5V19.1z" fill="#46c016"/>
</g>
</svg>
