<?xml version="1.0" encoding="utf-8"?>
<!-- Generator: Adobe Illustrator 22.1.0, SVG Export Plug-In . SVG Version: 6.00 Build 0)  -->
<svg version="1.1" id="Layer_1" xmlns="http://www.w3.org/2000/svg" xmlns:xlink="http://www.w3.org/1999/xlink" x="0px" y="0px"
	 viewBox="0 0 186 37" style="enable-background:new 0 0 186 37;" xml:space="preserve">
<g>
	<path d="M34.1,36.2L23.2,23l-6.3,4.9v8.3H0.5V0.5h16.4v12.4L32.3,0.5h20.7L35.6,13.7l19.3,22.6H34.1z M53.8,35.7L34.9,13.6L51.4,1
		h-19L16.4,14V1H1v34.7h15.4v-8.1l6.9-5.3l11,13.4H53.8z" fill="#46c016"/>
	<path d="M89.5,36.2H73V26.2L53.3,0.5h19.8l8.2,12.1l8.1-12.1h19.8L89.5,26.2V36.2z M108.1,1H89.6l-8.3,12.5L72.8,1H54.3l19.2,25
		v9.7H89V26L108.1,1z" fill="#46c016"/>
	<path d="M111.1,36.2V0.5h16.4v35.7H111.1z M127,1h-15.4v34.7H127V1z" fill="#46c016"/>
	<path d="M148.8,36.2L129.7,0.5h19.3l5.5,11.9c1.5,3.2,2.9,6.9,2.9,6.9h0.4c0,0,1.4-3.7,2.9-6.8L166,0.5h19.4l-19.2,35.7H148.8z
		 M184.5,1h-18.2l-5.4,11.6c-1.5,3.1-3,7.1-3,7.1h-1.1c0,0-1.5-4-3-7.2L148.6,1h-18.1l18.6,34.7h16.8L184.5,1z" fill="#46c016"/>
</g>
</svg>
