<?xml version="1.0" encoding="utf-8"?>
<!-- Generator: Adobe Illustrator 22.1.0, SVG Export Plug-In . SVG Version: 6.00 Build 0)  -->
<svg version="1.1" id="Layer_1" xmlns="http://www.w3.org/2000/svg" xmlns:xlink="http://www.w3.org/1999/xlink" x="0px" y="0px"
	 viewBox="0 0 175 37" style="enable-background:new 0 0 175 37;" xml:space="preserve">
<g>
	<path d="M52.3,0.5v35.7H33.6L16.6,18.1h-0.4v18.2H0.7V0.5h18.9l16.9,17.9h0.4V0.5H52.3z M37.3,18.9h-1.1L19.4,1H1.2v34.7h14.5V17.6
		h1.1l17.1,18.2h18V1H37.3V18.9z"/>
	<path d="M73.2,13.8h27.3V22H73.2v4.7h29.1v9.6H56.8V0.5h45.1v9.1H73.2V13.8z M101.4,9.1V1H57.3v34.7h44.5v-8.6H72.7v-5.7H100v-7.2
		H72.7V9.1H101.4z"/>
	<path d="M174.6,0.5l-11.7,35.7h-17.7l-3.8-12.9c-1-3.3-1.9-7.3-1.9-7.3h-0.4c0,0-0.9,4-1.9,7.4l-3.8,12.9h-18.1L104,0.5h17.2
		l3.1,12c0.8,3.3,1.7,7.3,1.7,7.3h0.4c0,0,0.9-4,1.8-7.1l3.5-12.1H147l3.5,12.1c0.9,3.2,1.8,7.1,1.8,7.1h0.4c0,0,0.8-4,1.7-7.4
		l3.2-11.9H174.6z M154.9,12.5c-0.8,3.4-1.8,7.8-1.8,7.8h-1.2c0,0-1-4.4-1.9-7.5L146.6,1H132l-3.4,11.8c-0.9,3.1-1.9,7.5-1.9,7.5
		h-1.2c0,0-0.9-4.4-1.8-7.6l-3-11.6h-16.1l11,34.7h17.4l3.6-12.5c1-3.4,2-7.7,2-7.7h1.2c0,0,1,4.4,2,7.7l3.7,12.6h17L173.9,1h-16
		L154.9,12.5z"/>
</g>
</svg>
